<svg xmlns="http://www.w3.org/2000/svg" width="940" height="470" viewBox="0 0 940 470" font-family="-apple-system,BlinkMacSystemFont,Segoe UI,Helvetica,Arial,sans-serif">
<rect width="940" height="470" fill="#ffffff"/>
<defs><clipPath id="plot-clip"><rect x="74.00" y="40.00" width="844.00" height="374.00"/></clipPath></defs>
<line x1="133.58" y1="40.00" x2="133.58" y2="414.00" stroke="#d8dee4" stroke-width="1"/>
<text x="133.58" y="433.00" fill="#57606a" font-size="12.5" text-anchor="middle">1</text>
<line x1="232.87" y1="40.00" x2="232.87" y2="414.00" stroke="#d8dee4" stroke-width="1"/>
<text x="232.87" y="433.00" fill="#57606a" font-size="12.5" text-anchor="middle">2</text>
<line x1="332.16" y1="40.00" x2="332.16" y2="414.00" stroke="#d8dee4" stroke-width="1"/>
<text x="332.16" y="433.00" fill="#57606a" font-size="12.5" text-anchor="middle">3</text>
<line x1="431.46" y1="40.00" x2="431.46" y2="414.00" stroke="#d8dee4" stroke-width="1"/>
<text x="431.46" y="433.00" fill="#57606a" font-size="12.5" text-anchor="middle">4</text>
<line x1="530.75" y1="40.00" x2="530.75" y2="414.00" stroke="#d8dee4" stroke-width="1"/>
<text x="530.75" y="433.00" fill="#57606a" font-size="12.5" text-anchor="middle">5</text>
<line x1="630.05" y1="40.00" x2="630.05" y2="414.00" stroke="#d8dee4" stroke-width="1"/>
<text x="630.05" y="433.00" fill="#57606a" font-size="12.5" text-anchor="middle">6</text>
<line x1="729.34" y1="40.00" x2="729.34" y2="414.00" stroke="#d8dee4" stroke-width="1"/>
<text x="729.34" y="433.00" fill="#57606a" font-size="12.5" text-anchor="middle">7</text>
<line x1="828.64" y1="40.00" x2="828.64" y2="414.00" stroke="#d8dee4" stroke-width="1"/>
<text x="828.64" y="433.00" fill="#57606a" font-size="12.5" text-anchor="middle">∞</text>
<line x1="74.00" y1="378.23" x2="918.00" y2="378.23" stroke="#d8dee4" stroke-width="1"/>
<text x="65.00" y="382.63" fill="#57606a" font-size="12.5" text-anchor="end">0</text>
<line x1="74.00" y1="296.92" x2="918.00" y2="296.92" stroke="#d8dee4" stroke-width="1"/>
<text x="65.00" y="301.32" fill="#57606a" font-size="12.5" text-anchor="end">5</text>
<line x1="74.00" y1="215.62" x2="918.00" y2="215.62" stroke="#d8dee4" stroke-width="1"/>
<text x="65.00" y="220.02" fill="#57606a" font-size="12.5" text-anchor="end">10</text>
<line x1="74.00" y1="134.31" x2="918.00" y2="134.31" stroke="#d8dee4" stroke-width="1"/>
<text x="65.00" y="138.71" fill="#57606a" font-size="12.5" text-anchor="end">15</text>
<line x1="74.00" y1="53.01" x2="918.00" y2="53.01" stroke="#d8dee4" stroke-width="1"/>
<text x="65.00" y="57.41" fill="#57606a" font-size="12.5" text-anchor="end">20</text>
<rect x="74.00" y="40.00" width="844.00" height="374.00" fill="none" stroke="#8c959f" stroke-width="1.2"/>
<g clip-path="url(#plot-clip)">
<polyline points="133.6,118.1 232.9,118.1 332.2,118.1 431.5,118.1 530.8,118.1 630.0,118.1 729.3,118.1 828.6,118.1" fill="none" stroke="#1a7f37" stroke-width="3.40" stroke-linejoin="round" stroke-linecap="round"/>
<circle cx="828.64" cy="118.05" r="5.40" fill="#1a7f37"/>
<polyline points="133.6,118.1 232.9,118.1 332.2,118.1 431.5,118.1 530.8,118.1 630.0,118.1 729.3,118.1" fill="none" stroke="#cf222e" stroke-width="2.00" stroke-dasharray="7 4" stroke-linejoin="round" stroke-linecap="round"/>
<polyline points="729.3,118.1 828.6,378.2" fill="none" stroke="#cf222e" stroke-width="2.00" stroke-dasharray="7 4" stroke-linejoin="round" stroke-linecap="round"/>
<circle cx="828.64" cy="378.23" r="5.40" fill="#cf222e"/>
<polyline points="133.6,378.2 232.9,378.2 332.2,378.2 431.5,378.2 530.8,378.2 630.0,378.2 729.3,378.2 828.6,378.2" fill="none" stroke="#0969da" stroke-width="2.40" stroke-linejoin="round" stroke-linecap="round"/>
<circle cx="828.64" cy="378.23" r="3.40" fill="#0969da"/>
<line x1="778.99" y1="40.00" x2="778.99" y2="414.00" stroke="#57606a" stroke-width="1.10" stroke-dasharray="3 4"/>
<text x="471.18" y="103.42" fill="#1a7f37" font-size="13.0" text-anchor="middle">chiral, wavelet route  —  reaches the limit</text>
<text x="575.44" y="216.92" fill="#cf222e" font-size="13.0" text-anchor="end">chiral, momentum cutoff:</text>
<text x="575.44" y="233.92" fill="#cf222e" font-size="13.0" text-anchor="end">collapses by a factor 2^|Γ|, and only here</text>
<text x="471.18" y="361.15" fill="#0969da" font-size="13.0" text-anchor="middle">full algebra, either route  —  pure throughout</text>
<text x="352.02" y="68.62" fill="#1f2328" font-size="12.5" text-anchor="middle" font-style="italic">N = 3, so |Γ_{N,-}| = 16;  the connecting unitaries exist at every finite M</text>
</g>
<text x="496.00" y="26.00" fill="#1f2328" font-size="15" font-weight="600" text-anchor="middle">GNS multiplicity: constant at every finite scale, collapsing only in the limit</text>
<text x="496.00" y="458.00" fill="#1f2328" font-size="13.5" text-anchor="middle">renormalization step M</text>
<text transform="translate(16.00,227.00) rotate(-90)" fill="#1f2328" font-size="13.5" text-anchor="middle">m(S),  eigenvalues strictly between 0 and 1</text>
</svg>
