<svg xmlns="http://www.w3.org/2000/svg" width="940" height="470" viewBox="0 0 940 470" font-family="-apple-system,BlinkMacSystemFont,Segoe UI,Helvetica,Arial,sans-serif">
<rect width="940" height="470" fill="#ffffff"/>
<defs><clipPath id="plot-clip"><rect x="74.00" y="40.00" width="844.00" height="374.00"/></clipPath></defs>
<line x1="99.07" y1="40.00" x2="99.07" y2="414.00" stroke="#d8dee4" stroke-width="1"/>
<text x="99.07" y="433.00" fill="#57606a" font-size="12.5" text-anchor="middle">0</text>
<line x1="307.98" y1="40.00" x2="307.98" y2="414.00" stroke="#d8dee4" stroke-width="1"/>
<text x="307.98" y="433.00" fill="#57606a" font-size="12.5" text-anchor="middle">5</text>
<line x1="516.89" y1="40.00" x2="516.89" y2="414.00" stroke="#d8dee4" stroke-width="1"/>
<text x="516.89" y="433.00" fill="#57606a" font-size="12.5" text-anchor="middle">10</text>
<line x1="725.80" y1="40.00" x2="725.80" y2="414.00" stroke="#d8dee4" stroke-width="1"/>
<text x="725.80" y="433.00" fill="#57606a" font-size="12.5" text-anchor="middle">15</text>
<rect x="74.00" y="40.00" width="844.00" height="374.00" fill="none" stroke="#8c959f" stroke-width="1.2"/>
<g clip-path="url(#plot-clip)">
<polyline points="99.1,145.4 99.2,145.4 99.2,145.4 99.3,145.4 99.4,145.4 99.5,145.4 99.6,145.4 99.7,145.4 99.8,145.4 99.9,145.4 100.0,145.4 100.1,145.4 100.2,145.4 100.3,145.4 100.4,145.4 100.5,145.4 100.5,145.4 100.7,145.4 100.8,145.4 100.9,145.4 100.9,145.4 101.0,145.4 101.2,145.4 101.3,145.4 101.4,145.4 101.4,145.4 101.5,145.4 101.7,145.4 101.8,145.4 101.8,145.4 101.9,145.4 102.0,145.4 102.1,145.4 102.3,145.4 102.3,145.4 102.4,145.4 102.5,145.4 102.6,145.4 102.7,145.4 102.8,145.4 102.9,145.4 103.0,145.4 103.1,145.4 103.2,145.4 103.3,145.4 103.4,145.4 103.5,145.4 103.6,145.4 103.6,145.4 103.8,145.4 103.9,145.3 104.0,145.3 104.0,145.3 104.1,145.3 104.2,145.3 104.3,145.2 104.5,145.3 104.5,145.3 104.6,145.3 104.7,145.3 104.8,145.3 104.9,145.3 105.0,145.3 105.1,145.3 105.2,145.3 105.4,145.3 105.4,145.3 105.5,145.4 105.6,145.4 105.7,145.4 105.8,145.4 105.9,145.4 106.0,145.4 106.1,145.4 106.2,145.4 106.3,145.4 106.3,145.4 106.5,145.4 106.6,145.4 106.7,145.4 106.7,145.4 106.8,145.4 106.9,145.4 107.1,145.4 107.1,145.4 107.2,145.4 107.3,145.4 107.5,145.5 107.6,145.5 107.6,145.5 107.7,145.5 107.8,145.5 107.9,145.5 108.0,145.6 108.1,145.6 108.2,145.5 108.3,145.6 108.4,145.6 108.5,145.6 108.6,145.7 108.7,145.7 108.8,145.7 108.9,145.7 108.9,145.7 109.0,145.8 109.2,145.8 109.3,145.9 109.4,146.0 109.4,146.0 109.5,146.2 109.7,146.2 109.8,146.2 109.8,146.2 109.9,146.1 110.0,146.1 110.2,146.1 110.2,146.1 110.3,146.1 110.4,146.0 110.5,146.0 110.6,146.0 110.7,146.0 110.8,146.0 110.9,145.9 111.0,145.9 111.1,145.9 111.1,145.9 111.3,145.8 111.4,145.8 111.5,145.8 111.6,145.8 111.7,145.7 111.8,145.7 111.9,145.7 112.0,145.7 112.0,145.6 112.1,145.6 112.3,145.5 112.4,145.5 112.5,145.5 112.5,145.5 112.6,145.5 112.8,145.5 112.9,145.5 112.9,145.5 113.0,145.5 113.1,145.5 113.2,145.4 113.3,145.4 113.4,145.3 113.5,145.4 113.6,145.4 113.7,145.4 113.8,145.4 113.9,145.4 114.0,145.4 114.1,145.3 114.2,145.3 114.2,145.4 114.3,145.4 114.5,145.4 114.6,145.4 114.7,145.5 114.7,145.7 114.8,145.6 115.0,145.5 115.1,145.5 115.1,145.5 115.2,145.4 115.3,145.4 115.4,145.3 115.6,145.2 115.6,145.2 115.7,145.2 115.8,145.1 116.0,145.0 116.0,144.9 116.1,144.9 116.2,144.9 116.3,144.8 116.4,144.8 116.5,144.7 116.6,144.7 116.7,144.6 116.8,144.6 116.9,144.6 116.9,144.6 117.0,144.5 117.2,144.5 117.3,144.6 117.3,144.7 117.5,144.6 117.6,144.5 117.7,144.4 117.8,144.3 117.8,144.3 117.9,144.2 118.1,144.0 118.2,143.9 118.2,143.9 118.3,143.8 118.4,143.8 118.6,143.7 118.7,143.8 118.7,143.6 118.8,143.5 118.9,143.4 119.0,143.3 119.1,143.2 119.2,142.9 119.3,143.0 119.4,142.8 119.5,142.6 119.6,142.4 119.7,142.1 119.8,141.9 119.9,141.6 120.0,140.8 120.0,140.9 120.2,141.0 120.3,141.0 120.4,141.1 120.5,141.1 120.5,141.2 120.6,141.2 120.8,141.3 120.9,141.4 120.9,141.4 121.0,141.5 121.1,141.5 121.2,141.6 121.3,141.7 121.4,141.7 121.5,141.8 121.6,141.8 121.8,141.9 121.8,142.0 121.9,142.0 122.0,142.1 122.1,142.1 122.2,142.1 122.3,142.2 122.4,142.3 122.5,142.3 122.6,142.3 122.7,142.4 122.7,142.4 122.9,142.5 123.0,142.6 123.1,142.6 123.1,142.7 123.2,142.8 123.3,142.8 123.5,142.9 123.6,143.0 123.6,143.0 123.7,143.1 123.9,143.1 124.0,143.2 124.0,143.3 124.1,143.4 124.2,143.4 124.3,143.5 124.4,143.6 124.5,143.7 124.6,143.7 124.7,143.8 124.8,143.9 124.9,144.0 125.0,144.2 125.1,144.3 125.2,144.5 125.3,144.5 125.3,144.6 125.4,144.6 125.6,144.6 125.7,144.7 125.8,144.7 125.8,144.7 126.0,144.8 126.1,144.8 126.2,144.8 126.2,144.8 126.3,144.9 126.5,144.8 126.6,144.9 126.7,144.9 126.7,145.0 126.8,145.0 126.9,145.0 127.0,145.1 127.1,145.1 127.2,145.1 127.3,145.2 127.4,145.2 127.5,145.3 127.5,145.3 127.7,145.5 127.8,145.7 127.9,145.7 128.0,145.7 128.0,145.7 128.2,145.6 128.3,145.6 128.4,145.6 128.4,145.6 128.5,145.6 128.7,145.6 128.8,145.6 128.9,145.6 128.9,145.6 129.0,145.7 129.1,145.8 129.3,145.7 129.3,145.7 129.4,145.6 129.5,145.5 129.6,145.5 129.8,145.6 129.8,145.5 129.9,145.3 130.0,145.2 130.1,145.2 130.2,144.9 130.3,144.6 130.4,144.0 130.5,144.1 130.6,144.2 130.7,144.3 130.8,144.5 130.9,144.6 131.0,144.8 131.1,144.9 131.1,145.0 131.2,145.1 131.4,145.3 131.5,145.4 131.5,145.6 131.6,145.7 131.7,145.7 131.8,145.9 132.0,146.1 132.0,146.2 132.1,146.4 132.2,146.5 132.4,146.7 132.4,146.8 132.5,147.0 132.6,147.1 132.7,147.2 132.8,147.4 132.9,147.7 133.0,148.0 133.1,148.1 133.2,148.2 133.3,148.3 133.3,148.4 133.5,148.5 133.6,148.6 133.7,148.6 133.8,148.7 133.8,148.8 133.9,148.9 134.1,149.1 134.2,149.2 134.2,149.3 134.3,149.6 134.5,149.7 134.6,149.7 134.6,149.7 134.7,149.8 134.8,149.8 134.9,149.9 135.0,150.1 135.1,150.0 135.2,150.0 135.3,150.1 135.4,150.0 135.5,150.0 135.6,149.2 135.7,149.4 135.8,149.6 135.9,149.8 136.0,150.2 136.1,150.4 136.2,150.6 136.3,150.8 136.4,151.0 136.4,151.2 136.6,151.6 136.7,151.9 136.8,152.1 136.9,152.4 136.9,152.7 137.0,152.9 137.2,153.2 137.3,153.4 137.3,153.5 137.4,153.7 137.5,153.9 137.6,154.2 137.8,154.4 137.8,154.5 137.9,154.7 138.0,154.7 138.1,154.8 138.2,154.3 138.3,154.7 138.4,155.0 138.5,155.3 138.6,155.6 138.7,156.3 138.8,156.7 138.9,157.1 139.0,157.4 139.1,157.7 139.1,157.9 139.3,158.5 139.4,158.8 139.5,158.9 139.5,158.6 139.6,159.1 139.7,159.6 139.9,160.7 140.0,161.1 140.0,161.6 140.2,161.9 140.3,162.6 140.4,163.5 140.4,164.1 140.5,164.4 140.6,165.5 140.7,166.2 140.9,170.3 140.9,170.2 141.0,170.0 141.1,169.9 141.2,169.8 141.3,169.6 141.4,169.4 141.5,169.2 141.6,169.1 141.7,169.0 141.7,168.8 141.8,168.7 142.0,168.4 142.1,168.3 142.2,168.2 142.2,168.0 142.4,167.8 142.5,167.6 142.6,167.5 142.6,167.4 142.7,167.2 142.8,167.1 143.0,166.8 143.1,166.7 143.1,166.6 143.2,166.4 143.3,166.3 143.4,166.1 143.5,165.9 143.6,165.7 143.7,165.6 143.8,165.5 143.9,165.3 144.0,165.2 144.1,165.0 144.2,164.8 144.3,164.7 144.4,164.6 144.5,164.3 144.6,164.2 144.7,164.0 144.8,163.9 144.9,163.8 144.9,163.7 145.1,163.4 145.2,163.3 145.3,163.2 145.3,163.0 145.4,162.9 145.5,162.8 145.7,162.6 145.7,162.4 145.8,162.3 145.9,162.2 146.0,162.1 146.1,162.1 146.2,161.8 146.3,161.7 146.4,161.5 146.5,161.4 146.6,161.1 146.7,160.9 146.8,160.8 146.9,160.6 147.0,160.5 147.1,160.3 147.2,160.0 147.3,159.9 147.4,159.7 147.5,159.6 147.5,159.4 147.6,159.3 147.8,159.0 147.9,158.9 148.0,158.7 148.0,158.6 148.1,158.5 148.2,158.3 148.4,158.0 148.4,157.9 148.5,157.8 148.6,157.7 148.8,157.5 148.8,157.3 148.9,157.1 149.0,157.0 149.1,156.8 149.2,156.7 149.3,156.3 149.4,156.1 149.5,156.0 149.6,155.8 149.7,155.7 149.7,155.5 149.9,155.2 150.0,155.2 150.1,155.0 150.2,154.8 150.2,154.6 150.3,154.4 150.5,154.0 150.6,153.9 150.6,153.8 150.7,153.5 150.9,153.1 151.0,152.9 151.1,152.7 151.1,152.4 151.2,152.2 151.3,151.6 151.5,151.4 151.5,151.3 151.6,151.2 151.7,151.1 151.8,151.0 151.9,150.9 152.0,150.8 152.1,150.7 152.2,150.6 152.3,150.5 152.4,150.4 152.4,150.3 152.6,150.0 152.7,149.9 152.8,149.8 152.8,149.8 153.0,149.6 153.1,149.5 153.2,149.4 153.3,149.3 153.3,149.2 153.4,149.1 153.6,148.9 153.7,148.9 153.7,148.8 153.8,148.7 153.9,148.7 154.0,148.6 154.2,148.4 154.2,148.3 154.3,148.1 154.4,148.0 154.6,147.8 154.6,147.7 154.7,147.6 154.8,147.5 154.9,147.3 155.0,147.2 155.1,147.0 155.2,147.0 155.3,146.9 155.4,146.7 155.5,146.6 155.5,146.4 155.7,146.2 155.8,146.1 155.9,146.0 155.9,145.8 156.0,145.6 156.1,145.5 156.3,145.2 156.4,145.0 156.4,144.7 156.5,144.3 156.7,144.2 156.8,144.1 156.8,144.1 156.9,144.0 157.0,144.0 157.1,143.9 157.3,143.8 157.3,143.8 157.4,143.7 157.5,143.7 157.6,143.6 157.7,143.6 157.8,143.6 157.9,143.6 158.0,143.5 158.1,143.4 158.2,143.3 158.2,143.3 158.4,143.1 158.5,143.1 158.6,143.0 158.6,142.9 158.8,142.8 158.9,142.6 159.0,142.5 159.0,142.3 159.1,141.9 159.2,141.9 159.4,142.0 159.5,142.0 159.5,142.0 159.6,142.0 159.7,142.1 159.8,142.2 159.9,142.1 160.0,142.1 160.1,142.2 160.2,142.1 160.3,142.1 160.4,142.0 160.4,141.7 160.6,141.9 160.7,142.0 160.8,142.2 160.9,142.4 161.0,142.4 161.1,142.2 161.2,142.4 161.3,142.7 161.4,142.9 161.5,143.3 161.6,143.5 161.7,144.0 161.7,145.4 161.8,145.2 161.9,144.9 162.1,144.5 162.2,144.2 162.2,144.0 162.3,143.8 162.4,143.6 162.5,143.3 162.6,142.9 162.7,142.6 162.8,142.4 162.9,142.2 163.0,141.7 163.1,141.5 163.2,141.2 163.3,141.0 163.4,140.8 163.5,140.6 163.6,140.1 163.7,139.9 163.8,139.7 163.9,139.4 163.9,139.2 164.0,139.0 164.2,138.6 164.3,138.4 164.4,138.2 164.4,138.0 164.5,137.8 164.6,137.5 164.8,137.0 164.8,136.8 164.9,136.5 165.0,136.2 165.2,135.8 165.3,135.5 165.3,135.3 165.4,135.0 165.5,134.8 165.6,134.6 165.7,134.2 165.8,133.9 165.9,133.6 166.0,133.3 166.1,133.1 166.1,132.8 166.3,132.3 166.4,132.0 166.5,131.7 166.6,131.4 166.6,131.2 166.7,130.8 166.9,130.2 167.0,129.5 167.0,129.4 167.1,129.2 167.3,128.8 167.4,128.6 167.5,128.5 167.5,128.3 167.6,128.1 167.7,127.9 167.9,127.5 167.9,127.4 168.0,127.2 168.1,127.0 168.2,126.9 168.3,126.8 168.4,126.4 168.5,126.2 168.6,125.9 168.7,125.7 168.8,125.5 168.8,125.4 169.0,125.0 169.1,124.7 169.2,124.5 169.3,124.3 169.4,123.8 169.5,123.5 169.6,123.0 169.7,122.8 169.7,122.7 169.8,122.6 170.0,122.4 170.1,122.3 170.1,122.2 170.2,122.1 170.3,122.0 170.4,121.8 170.6,121.6 170.6,121.4 170.7,121.3 170.8,121.0 171.0,120.6 171.0,120.5 171.1,120.5 171.2,120.6 171.3,120.5 171.4,120.5 171.5,120.0 171.6,120.1 171.7,120.3 171.8,120.3 171.9,120.2 171.9,120.5 172.1,120.9 172.2,122.2 172.3,121.8 172.4,121.5 172.4,121.1 172.5,120.7 172.7,120.0 172.8,119.6 172.8,119.2 172.9,118.9 173.1,118.2 173.2,117.8 173.2,117.5 173.3,117.1 173.4,116.8 173.5,116.5 173.7,115.7 173.7,115.4 173.8,114.9 173.9,114.6 174.0,114.2 174.1,113.8 174.2,113.1 174.3,112.7 174.4,112.2 174.5,111.9 174.6,111.4 174.6,111.0 174.8,109.8 174.9,109.5 175.0,109.2 175.0,108.9 175.2,108.3 175.3,108.0 175.4,107.7 175.5,107.5 175.5,107.2 175.6,106.8 175.8,106.3 175.9,105.9 175.9,105.6 176.0,105.2 176.1,104.5 176.2,104.3 176.4,103.9 176.4,103.8 176.5,103.5 176.6,103.3 176.7,103.0 176.8,102.5 176.9,102.4 177.0,102.3 177.1,101.9 177.2,101.9 177.3,102.1 177.4,103.2 177.5,102.7 177.6,102.1 177.7,101.6 177.7,101.0 177.9,99.9 178.0,99.4 178.1,98.9 178.1,98.4 178.2,97.8 178.3,97.2 178.5,96.1 178.6,95.5 178.6,94.9 178.7,94.0 178.8,93.5 178.9,93.0 179.0,92.2 179.1,91.7 179.2,91.3 179.3,90.7 179.5,89.6 179.5,89.4 179.6,89.0 179.7,88.4 179.8,88.3 179.9,87.9 180.0,88.7 180.1,87.9 180.2,87.1 180.3,86.3 180.3,85.6 180.4,84.7 180.6,83.1 180.7,82.0 180.8,81.3 180.8,80.7 180.9,80.0 181.0,79.1 181.2,77.9 181.2,77.5 181.3,78.0 181.4,76.9 181.6,74.6 181.7,73.2 181.7,72.3 181.8,71.1 181.9,70.3 182.0,70.3 182.1,67.0 182.2,65.5 182.3,64.9 182.4,62.5 182.5,61.0 182.6,58.4 182.6,52.5 182.8,52.8 182.9,52.9 183.0,53.0 183.0,53.2 183.1,53.3 183.3,53.6 183.4,53.7 183.4,53.8 183.5,54.0 183.7,54.2 183.8,54.4 183.9,54.5 183.9,54.6 184.0,54.8 184.1,54.9 184.3,55.2 184.3,55.3 184.4,55.4 184.5,55.6 184.6,55.7 184.7,55.8 184.8,56.1 184.9,56.2 185.0,56.4 185.1,56.5 185.2,56.6 185.2,56.8 185.4,57.0 185.5,57.2 185.6,57.3 185.7,57.4 185.8,57.7 185.9,57.8 186.0,58.0 186.1,58.1 186.1,58.2 186.2,58.4 186.4,58.6 186.5,58.8 186.6,58.9 186.6,59.0 186.7,59.1 186.8,59.3 187.0,59.5 187.0,59.7 187.1,59.8 187.2,59.9 187.3,60.0 187.4,60.2 187.5,60.4 187.6,60.5 187.7,60.7 187.8,60.8 187.9,61.0 188.0,61.1 188.1,61.3 188.2,61.4 188.3,61.6 188.3,61.7 188.5,62.0 188.6,62.1 188.7,62.3 188.8,62.4 188.8,62.5 188.9,62.7 189.1,63.0 189.2,63.1 189.2,63.2 189.3,63.4 189.5,63.6 189.6,63.8 189.7,63.9 189.7,64.1 189.8,64.2 189.9,64.3 190.1,64.6 190.1,64.7 190.2,64.9 190.3,65.0 190.4,65.1 190.5,65.2 190.6,65.5 190.7,65.7 190.8,65.8 190.9,66.0 191.0,66.1 191.0,66.3 191.2,66.6 191.3,66.7 191.4,66.8 191.4,67.0 191.6,67.3 191.7,67.4 191.8,67.5 191.9,67.7 191.9,67.8 192.0,68.0 192.2,68.3 192.3,68.5 192.3,68.6 192.4,68.7 192.5,68.9 192.6,69.1 192.8,69.4 192.8,69.6 192.9,69.8 193.0,70.0 193.1,70.3 193.2,70.5 193.3,70.7 193.4,70.8 193.5,70.9 193.6,71.0 193.7,71.3 193.8,71.4 193.9,71.5 194.0,71.6 194.1,71.7 194.1,71.8 194.3,72.1 194.4,72.2 194.5,72.3 194.5,72.4 194.6,72.5 194.7,72.6 194.9,72.9 195.0,73.0 195.0,73.1 195.1,73.2 195.2,73.3 195.3,73.4 195.4,73.6 195.5,73.8 195.6,73.9 195.7,73.9 195.9,74.2 195.9,74.3 196.0,74.4 196.1,74.5 196.2,74.7 196.3,74.8 196.4,75.0 196.5,75.2 196.6,75.3 196.7,75.4 196.8,75.5 196.8,75.6 197.0,75.8 197.1,76.0 197.2,76.1 197.2,76.2 197.3,76.4 197.4,76.5 197.6,76.8 197.6,76.9 197.7,77.0 197.8,77.2 198.0,77.4 198.1,77.6 198.1,77.8 198.2,78.0 198.3,78.3 198.4,78.4 198.5,78.5 198.6,78.6 198.7,78.7 198.8,78.8 198.9,78.9 199.0,79.0 199.1,79.2 199.2,79.3 199.3,79.4 199.4,79.4 199.4,79.5 199.5,79.6 199.7,79.8 199.8,79.9 199.9,80.0 199.9,80.1 200.1,80.3 200.2,80.4 200.3,80.4 200.3,80.5 200.4,80.7 200.5,80.8 200.7,81.0 200.8,81.1 200.8,81.3 200.9,81.6 201.0,81.6 201.1,81.7 201.2,81.8 201.3,81.9 201.4,81.9 201.5,82.0 201.6,82.0 201.6,82.1 201.8,82.2 201.9,82.2 202.0,82.3 202.1,82.4 202.2,82.8 202.3,82.8 202.4,82.8 202.5,82.8 202.5,82.8 202.6,82.8 202.8,82.9 202.9,83.0 203.0,83.0 203.0,82.9 203.1,82.9 203.2,83.0 203.4,82.8 203.4,82.6 203.5,82.0 203.6,82.1 203.7,82.3 203.8,82.5 203.9,82.9 204.0,83.0 204.1,83.2 204.2,83.4 204.3,83.8 204.4,84.0 204.5,84.1 204.6,84.3 204.7,84.5 204.7,84.7 204.9,85.1 205.0,85.2 205.1,85.4 205.2,85.6 205.2,85.8 205.3,85.9 205.5,86.3 205.6,86.5 205.6,86.7 205.7,86.8 205.8,87.0 205.9,87.2 206.1,87.5 206.1,87.7 206.2,87.8 206.3,88.0 206.5,88.4 206.5,88.6 206.6,88.8 206.7,89.0 206.8,89.2 206.9,89.4 207.0,89.7 207.1,89.9 207.2,90.1 207.3,90.3 207.4,90.5 207.4,90.6 207.6,91.0 207.7,91.2 207.8,91.4 207.8,91.6 208.0,92.0 208.1,92.2 208.2,92.4 208.3,92.6 208.3,92.9 208.4,93.0 208.6,93.5 208.7,93.8 208.7,94.1 208.8,94.3 208.9,94.5 209.0,94.6 209.2,94.9 209.2,95.1 209.3,95.2 209.4,95.4 209.5,95.6 209.6,95.7 209.7,96.0 209.8,96.2 209.9,96.3 210.0,96.5 210.1,96.7 210.2,96.9 210.3,97.1 210.4,97.3 210.5,97.4 210.5,97.6 210.7,97.9 210.8,98.1 210.9,98.3 211.0,98.4 211.0,98.6 211.1,98.8 211.3,99.2 211.4,99.6 211.4,99.7 211.5,99.8 211.6,99.9 211.7,100.1 211.8,100.3 211.9,100.4 212.0,100.5 212.1,100.6 212.3,100.9 212.3,101.0 212.4,101.2 212.5,101.3 212.6,101.5 212.7,101.8 212.8,102.0 212.9,102.0 213.0,102.1 213.1,102.2 213.2,102.3 213.2,102.4 213.4,102.6 213.5,102.6 213.6,102.7 213.6,102.8 213.7,102.7 213.8,102.7 214.0,102.1 214.1,102.3 214.1,102.6 214.2,102.8 214.4,103.3 214.5,103.6 214.5,103.8 214.6,104.1 214.7,104.3 214.8,104.5 214.9,105.0 215.0,105.3 215.1,105.5 215.2,105.8 215.3,106.0 215.4,106.2 215.5,106.7 215.6,107.0 215.7,107.3 215.8,107.5 215.8,107.8 215.9,108.0 216.1,108.6 216.2,108.8 216.3,109.1 216.3,109.4 216.5,110.0 216.6,110.4 216.7,110.6 216.7,110.8 216.8,111.0 216.9,111.3 217.1,111.7 217.2,111.9 217.2,112.1 217.3,112.3 217.4,112.5 217.5,112.7 217.6,113.2 217.7,113.4 217.8,113.7 217.9,114.1 218.0,114.3 218.1,114.4 218.2,114.7 218.3,114.9 218.4,115.1 218.5,115.3 218.6,115.7 218.7,115.8 218.8,115.9 218.9,116.2 218.9,116.2 219.0,116.3 219.2,115.8 219.3,116.1 219.4,116.5 219.4,116.8 219.5,117.2 219.6,117.5 219.8,118.2 219.8,118.5 219.9,118.8 220.0,119.2 220.1,119.5 220.2,119.8 220.3,120.6 220.4,121.0 220.5,121.5 220.6,121.8 220.7,122.4 220.8,122.6 220.9,122.9 221.0,123.2 221.1,123.6 221.2,124.0 221.3,124.5 221.4,124.7 221.5,125.1 221.6,125.2 221.6,125.4 221.8,125.2 221.9,125.6 222.0,126.1 222.0,126.6 222.1,127.0 222.2,127.5 222.3,127.9 222.5,129.1 222.5,129.5 222.6,129.8 222.7,130.3 222.9,131.1 222.9,131.5 223.0,131.8 223.1,131.6 223.2,132.2 223.3,132.8 223.4,134.2 223.5,134.8 223.6,135.4 223.7,135.9 223.8,136.0 223.8,136.8 224.0,138.6 224.1,139.0 224.2,140.2 224.3,141.0 224.4,145.4" fill="none" stroke="#0969da" stroke-width="1.80" stroke-linejoin="round" stroke-linecap="round"/>
<line x1="74.00" y1="145.40" x2="918.00" y2="145.40" stroke="#57606a" stroke-width="0.80" stroke-dasharray="1 5"/>
<rect x="192.73" y="140.20" width="10.40" height="10.40" fill="#0969da"/>
<text x="197.93" y="161.40" fill="#0969da" font-size="13.0" text-anchor="middle">μ</text>
<polyline points="99.1,254.2 99.7,254.2 99.8,254.2 100.0,254.2 100.3,254.2 100.6,254.2 100.8,254.2 100.9,254.2 101.2,254.2 101.3,254.2 101.5,254.2 101.8,254.2 102.1,254.2 102.2,254.2 102.6,254.2 102.7,254.2 103.0,254.2 103.2,254.2 103.5,254.2 103.6,254.2 103.9,254.2 104.0,254.2 104.4,254.2 104.5,254.2 104.6,254.2 104.9,254.2 105.1,254.2 105.4,254.2 105.7,254.2 105.8,254.2 106.2,254.2 106.3,254.2 106.6,254.2 106.7,254.2 106.9,254.2 107.1,254.2 107.5,254.2 107.6,254.2 108.0,254.2 108.0,254.2 108.4,254.2 108.5,254.2 108.9,254.2 109.0,254.2 109.3,254.2 109.4,254.2 109.8,254.2 109.8,254.2 110.2,254.2 110.3,254.2 110.7,254.2 110.7,254.2 111.1,254.2 111.4,254.2 111.6,254.2 111.6,254.2 112.0,254.2 112.0,254.2 112.5,254.2 112.5,254.2 112.9,254.2 112.9,254.2 113.3,254.2 113.4,254.2 113.8,254.2 113.9,254.2 114.2,254.2 114.3,254.2 114.7,254.2 115.0,254.2 115.1,254.2 115.2,254.2 115.6,254.2 115.8,254.2 116.0,254.2 116.1,254.2 116.4,254.2 116.8,254.2 116.9,254.2 117.0,254.2 117.4,254.2 117.5,254.2 117.8,254.2 117.9,254.2 118.3,254.2 118.4,254.2 118.7,254.2 118.9,254.2 119.2,254.2 119.3,254.2 119.6,254.2 119.7,254.2 120.1,254.2 120.2,254.2 120.5,254.2 120.6,254.2 121.0,254.2 121.2,254.2 121.4,254.2 121.5,254.2 121.9,254.2 122.0,254.2 122.3,254.2 122.4,254.2 122.8,254.2 122.9,254.2 123.2,254.2 123.3,254.2 123.6,254.2 123.8,254.2 124.1,254.2 124.2,254.2 124.6,254.2 124.7,254.2 125.0,254.2 125.1,254.2 125.5,254.2 125.6,254.2 125.9,254.2 126.0,254.2 126.4,254.2 126.5,254.2 126.8,254.2 126.9,254.2 127.3,254.2 127.5,254.2 127.7,254.2 127.8,254.2 128.2,254.2 128.3,254.2 128.7,254.2 128.8,254.2 129.1,254.2 129.2,254.2 129.6,254.2 129.7,254.2 130.0,254.2 130.3,254.2 130.5,254.2 130.7,254.2 130.9,254.2 131.0,254.2 131.4,254.2 131.5,254.2 131.8,254.2 131.9,254.2 132.3,254.2 132.4,254.2 132.5,254.2 132.8,254.2 133.2,254.2 133.3,254.2 133.6,254.2 133.7,254.2 134.1,254.2 134.2,254.2 134.5,254.2 134.6,254.2 135.0,254.2 135.1,254.2 135.4,254.2 135.5,254.2 135.9,254.2 136.0,254.2 136.3,254.2 136.4,254.2 136.8,254.2 136.9,254.2 137.2,254.2 137.3,254.2 137.7,254.2 137.8,254.2 138.1,254.2 138.2,254.2 138.6,254.2 138.7,254.2 139.0,254.2 139.1,254.2 139.5,254.2 139.6,254.2 139.9,254.2 140.0,254.2 140.4,254.2 140.4,254.2 140.8,254.2 140.9,254.2 141.3,254.2 141.3,254.2 141.7,254.2 141.7,254.2 142.2,254.2 142.2,254.2 142.6,254.2 142.6,254.2 143.1,254.2 143.1,254.2 143.4,254.2 143.6,254.2 144.0,254.2 144.0,254.2 144.4,254.2 144.5,254.2 144.9,254.2 144.9,254.2 145.3,254.2 145.4,254.2 145.7,254.2 145.8,254.2 146.2,254.2 146.3,254.2 146.6,254.2 146.7,254.2 147.1,254.2 147.3,254.2 147.5,254.2 147.6,254.2 148.0,254.2 148.2,254.2 148.4,254.2 148.5,254.2 148.9,254.2 149.0,254.2 149.3,254.2 149.4,254.2 149.8,254.2 149.9,254.2 150.2,254.2 150.3,254.2 150.7,254.2 150.8,254.2 151.1,254.2 151.2,254.2 151.6,254.2 151.7,254.2 152.0,254.2 152.1,254.2 152.5,254.2 152.6,254.2 152.9,254.2 153.0,254.2 153.4,254.2 153.5,254.2 153.8,254.2 153.9,254.2 154.3,254.2 154.4,254.2 154.7,254.2 154.8,254.2 155.2,254.2 155.3,254.2 155.6,254.2 155.9,254.2 156.1,254.2 156.2,254.2 156.5,254.2 156.6,254.2 157.0,254.2 157.1,254.2 157.5,254.2 157.6,254.2 157.9,254.2 158.0,254.2 158.4,254.2 158.5,254.2 158.8,254.2 158.9,254.2 159.3,254.2 159.4,254.2 159.7,254.2 159.9,254.2 160.2,254.2 160.3,254.2 160.6,254.2 160.7,254.2 161.1,254.2 161.2,254.2 161.5,254.2 161.6,254.2 162.0,254.2 162.1,254.2 162.3,254.2 162.5,254.2 162.8,254.2 163.0,254.2 163.3,254.2 163.4,254.2 163.8,254.2 163.9,254.2 164.2,254.2 164.3,254.2 164.7,254.2 164.8,254.2 165.1,254.2 165.2,254.2 165.6,254.2 165.7,254.2 166.0,254.2 166.1,254.2 166.5,254.2 166.6,254.2 166.9,254.2 167.0,254.2 167.4,254.2 167.5,254.2 167.8,254.2 167.9,254.2 168.3,254.2 168.4,254.2 168.6,254.2 168.8,254.2 169.1,254.2 169.3,254.2 169.6,254.2 169.7,254.2 170.0,254.2 170.1,254.2 170.5,254.2 170.6,254.2 171.0,254.2 171.0,254.2 171.4,254.2 171.5,254.2 171.9,254.2 171.9,254.2 172.4,254.2 172.4,254.2 172.8,254.3 172.8,254.3 173.2,254.3 173.3,254.3 173.7,254.3 173.7,254.3 174.1,254.3 174.2,254.3 174.6,254.4 174.6,254.4 175.0,254.4 175.1,254.4 175.5,254.4 175.5,254.4 175.9,254.4 176.0,254.4 176.4,254.4 176.4,254.4 176.8,254.4 176.9,254.4 177.2,254.4 177.3,254.4 177.7,254.4 177.8,254.4 178.1,254.4 178.3,254.4 178.6,254.4 178.7,254.4 179.0,254.4 179.1,254.4 179.5,254.4 179.6,254.4 179.9,254.4 180.1,254.4 180.4,254.4 180.5,254.4 180.8,254.4 180.9,254.4 181.3,254.4 181.4,254.3 181.7,254.3 181.8,254.3 182.2,254.3 182.3,254.3 182.6,254.3 182.7,254.3 183.1,254.2 183.2,254.2 183.5,254.2 183.6,254.2 184.0,254.2 184.1,254.2 184.4,254.1 184.5,254.1 184.9,254.1 185.0,254.1 185.3,254.1 185.4,254.1 185.8,254.0 185.9,254.0 186.2,254.0 186.3,254.0 186.7,254.0 186.8,254.0 187.2,254.0 187.3,254.0 187.6,254.0 187.7,254.0 188.1,254.0 188.2,254.0 188.5,254.0 188.6,254.0 189.0,254.0 189.1,254.0 189.4,254.0 189.5,254.0 189.9,254.0 190.0,254.0 190.3,254.0 190.4,254.0 190.8,254.0 190.9,254.0 191.2,254.0 191.3,253.9 191.7,253.9 191.8,253.9 192.1,253.9 192.2,253.9 192.6,253.9 192.7,253.9 193.0,253.9 193.1,253.8 193.5,253.8 193.6,253.8 193.9,253.7 194.0,253.7 194.4,253.7 194.5,253.7 194.8,253.6 194.9,253.6 195.3,253.6 195.4,253.6 195.7,253.6 195.8,253.6 196.2,253.6 196.3,253.6 196.6,253.6 196.9,253.6 197.1,253.6 197.2,253.6 197.5,253.6 197.7,253.6 198.0,253.6 198.1,253.6 198.4,253.6 198.5,253.6 198.9,253.6 199.0,253.6 199.3,253.5 199.4,253.5 199.8,253.6 199.9,253.6 200.2,253.6 200.3,253.6 200.7,253.6 200.8,253.6 201.1,253.6 201.2,253.6 201.6,253.7 201.6,253.7 202.1,253.7 202.1,253.8 202.5,253.8 202.5,253.8 203.0,253.9 203.0,253.9 203.4,254.0 203.4,254.0 203.9,254.2 203.9,254.2 204.3,254.3 204.3,254.3 204.7,254.4 204.8,254.5 205.2,254.6 205.2,254.6 205.6,254.7 205.7,254.7 206.1,254.8 206.1,254.8 206.5,254.9 206.6,254.9 207.0,255.0 207.0,255.0 207.4,255.1 207.5,255.1 207.8,255.2 207.9,255.2 208.3,255.3 208.4,255.3 208.7,255.3 208.8,255.4 209.2,255.4 209.3,255.4 209.6,255.5 209.7,255.5 210.1,255.6 210.2,255.6 210.5,255.6 210.6,255.6 211.0,255.6 211.1,255.7 211.4,255.7 211.5,255.7 211.9,255.7 212.0,255.7 212.3,255.8 212.4,255.8 212.8,255.8 212.9,255.8 213.2,255.8 213.3,255.8 213.6,255.8 213.8,255.8 214.1,255.8 214.2,255.8 214.6,255.8 214.7,255.8 215.0,255.7 215.1,255.7 215.5,255.7 215.6,255.7 216.0,255.7 216.1,255.7 216.4,255.7 216.5,255.7 216.9,255.6 217.0,255.6 217.3,255.6 217.4,255.6 217.8,255.6 217.9,255.6 218.2,255.5 218.3,255.5 218.7,255.5 218.8,255.5 219.1,255.5 219.2,255.5 219.6,255.5 219.7,255.5 220.0,255.5 220.1,255.5 220.5,255.5 220.6,255.5 220.9,255.5 221.0,255.5 221.4,255.4 221.5,255.4 221.8,255.4 221.9,255.4 222.3,255.3 222.4,255.3 222.7,255.3 222.8,255.3 223.2,255.2 223.3,255.2 223.6,255.1 223.7,255.1 224.1,255.1 224.2,255.0 224.5,255.0 224.6,255.0 225.0,254.9 225.1,254.9 225.4,254.8 225.5,254.8 225.9,254.7 226.0,254.7 226.3,254.6 226.4,254.6 226.8,254.5 226.9,254.5 227.2,254.5 227.3,254.5 227.7,254.4 227.8,254.4 228.1,254.4 228.2,254.3 228.6,254.3 228.7,254.3 229.0,254.2 229.1,254.2 229.5,254.0 229.6,254.0 229.9,253.8 230.0,253.8 230.4,253.6 230.5,253.6 230.9,253.4 230.9,253.4 231.3,253.3 231.4,253.3 231.8,253.2 231.8,253.2 232.2,253.1 232.2,253.1 232.7,253.0 232.7,253.0 233.1,253.0 233.1,253.0 233.6,252.9 233.6,252.9 233.8,252.9 234.0,252.9 234.5,253.0 234.5,253.0 234.9,253.1 234.9,253.1 235.4,253.3 235.4,253.4 235.8,253.5 235.8,253.5 236.2,253.6 236.3,253.7 236.7,253.8 236.7,253.8 237.1,253.9 237.2,253.9 237.4,253.9 237.6,253.9 238.0,253.8 238.2,253.8 238.5,253.8 238.5,253.8 238.9,253.8 239.0,253.8 239.3,253.8 239.4,253.8 239.7,253.8 239.9,253.8 240.2,253.8 240.3,253.8 240.7,253.9 240.9,253.9 241.1,253.9 241.2,253.9 241.6,253.7 241.7,253.7 242.0,253.6 242.1,253.6 242.5,253.5 242.6,253.5 242.9,253.4 243.0,253.4 243.4,253.2 243.5,253.2 243.8,253.0 243.9,253.0 244.3,252.7 244.4,252.7 244.7,252.4 244.8,252.4 245.2,252.0 245.3,251.9 245.7,251.4 245.8,251.3 246.1,250.9 246.2,250.8 246.6,250.3 246.7,250.2 247.0,249.9 247.1,249.8 247.5,249.4 247.6,249.4 247.9,249.0 248.0,249.0 248.4,248.6 248.5,248.5 248.8,248.2 248.9,248.2 249.3,247.9 249.4,247.8 249.7,247.6 249.8,247.6 250.2,247.4 250.3,247.3 250.6,247.2 250.7,247.2 251.1,247.1 251.2,247.1 251.5,247.0 251.6,247.0 252.0,246.8 252.1,246.8 252.4,246.7 252.5,246.7 252.9,246.6 253.0,246.6 253.3,246.6 253.4,246.5 253.8,246.5 253.9,246.5 254.2,246.4 254.3,246.4 254.7,246.3 254.8,246.3 255.1,246.3 255.2,246.3 255.6,246.2 255.7,246.2 256.0,246.1 256.1,246.1 256.5,246.0 256.6,246.0 256.9,245.9 257.0,245.9 257.4,245.9 257.5,245.9 257.8,245.9 257.9,245.9 258.3,246.0 258.4,246.0 258.7,246.1 258.8,246.2 259.2,246.3 259.3,246.3 259.6,246.4 259.7,246.5 260.1,246.6 260.2,246.7 260.6,246.8 260.6,246.9 261.0,246.9 261.1,246.9 261.5,247.0 261.5,247.0 261.9,247.1 262.0,247.2 262.4,247.4 262.4,247.5 262.8,247.7 262.9,247.7 263.3,248.1 263.3,248.1 263.7,248.4 263.7,248.4 264.2,248.8 264.2,248.9 264.6,249.3 264.6,249.4 265.1,249.8 265.1,249.9 265.5,250.3 265.5,250.5 266.0,251.1 266.0,251.2 266.4,251.8 266.4,252.0 266.9,252.8 266.9,252.9 267.3,253.5 267.3,253.6 267.7,254.4 267.8,254.6 268.2,255.1 268.2,255.3 268.6,256.0 268.7,256.1 269.1,256.5 269.1,256.7 269.5,257.3 269.6,257.4 270.0,257.9 270.0,258.0 270.4,258.6 270.5,258.7 270.8,259.2 270.9,259.4 271.3,260.0 271.4,260.2 271.7,260.8 271.8,261.0 272.2,261.7 272.3,261.8 272.6,262.3 272.7,262.4 273.1,263.0 273.2,263.1 273.5,263.5 273.6,263.6 274.0,264.1 274.1,264.2 274.5,264.7 274.6,264.8 274.9,265.1 275.0,265.2 275.4,265.5 275.5,265.6 275.8,265.8 275.9,265.9 276.3,266.1 276.4,266.1 276.6,266.1 276.8,266.1 277.2,266.1 277.3,266.1 277.6,266.1 277.9,266.1 278.1,266.1 278.2,266.1 278.5,266.1 278.6,266.1 279.0,266.2 279.1,266.2 279.4,266.4 279.5,266.4 279.9,266.6 280.0,266.7 280.3,266.8 280.4,266.8 280.8,267.0 280.9,267.0 281.2,267.1 281.3,267.2 281.7,267.3 281.8,267.3 282.1,267.3 282.2,267.4 282.6,267.4 282.7,267.4 283.0,267.5 283.1,267.6 283.5,267.8 283.6,267.9 283.9,268.1 284.0,268.1 284.4,268.3 284.5,268.3 284.8,268.5 284.9,268.5 285.3,268.8 285.4,268.8 285.7,269.1 285.8,269.2 286.2,269.5 286.3,269.6 286.6,270.0 286.7,270.1 287.1,270.7 287.2,270.8 287.5,271.4 287.6,271.5 288.0,272.2 288.1,272.3 288.4,272.8 288.5,272.9 288.9,273.4 289.0,273.5 289.4,274.0 289.5,274.1 289.8,274.5 289.9,274.6 290.3,275.0 290.4,275.1 290.7,275.4 290.8,275.5 291.2,275.8 291.3,275.8 291.6,276.0 291.7,276.0 292.1,276.2 292.2,276.2 292.5,276.1 292.6,276.1 293.0,276.0 293.0,276.0 293.4,275.9 293.5,275.9 293.9,275.9 293.9,275.9 294.3,275.8 294.4,275.8 294.8,275.7 294.8,275.7 295.2,275.5 295.2,275.5 295.7,275.3 295.7,275.3 296.1,275.2 296.1,275.2 296.6,275.0 296.6,275.0 297.0,274.9 297.0,274.8 297.5,274.7 297.7,274.7 297.9,274.7 297.9,274.7 298.4,274.6 298.4,274.6 298.8,274.5 298.8,274.5 299.2,274.3 299.3,274.2 299.7,274.0 299.7,273.9 300.1,273.5 300.2,273.4 300.6,273.0 300.6,272.8 301.0,272.3 301.1,272.2 301.5,271.7 301.5,271.6 301.9,271.0 302.0,270.9 302.3,270.4 302.4,270.2 302.8,269.7 302.9,269.6 303.2,269.2 303.3,269.1 303.7,268.4 303.8,268.3 304.2,267.5 304.3,267.3 304.6,266.5 304.7,266.4 305.1,265.4 305.2,265.2 305.5,264.4 305.6,264.2 306.0,263.2 306.1,262.9 306.4,262.0 306.5,261.7 306.9,260.5 307.0,260.2 307.3,259.1 307.4,258.8 307.8,257.2 307.9,256.9 308.2,255.4 308.3,255.0 308.7,253.2 308.8,252.9 309.1,251.4 309.2,251.1 309.6,249.3 309.7,248.9 310.0,247.6 310.1,247.2 310.5,245.5 310.6,245.2 310.9,243.9 311.0,243.6 311.4,242.0 311.5,241.7 311.8,240.4 311.9,240.1 312.3,238.5 312.4,238.2 312.7,237.0 312.8,236.6 313.2,235.0 313.3,234.7 313.6,233.4 313.7,233.1 314.1,231.5 314.2,231.2 314.5,230.0 314.6,229.7 315.0,228.2 315.1,228.0 315.4,226.8 315.5,226.6 315.9,225.2 316.0,224.9 316.3,223.8 316.4,223.5 316.8,222.3 316.9,222.0 317.2,221.0 317.3,220.8 317.7,219.6 317.8,219.4 318.1,218.5 318.2,218.3 318.6,217.4 318.7,217.2 319.1,216.3 319.2,216.1 319.5,215.3 319.6,215.2 320.0,214.3 320.1,214.1 320.4,213.3 320.5,213.1 320.9,212.2 321.0,212.0 321.3,211.2 321.4,211.0 321.8,210.0 321.9,209.9 322.2,209.1 322.3,208.9 322.7,208.0 322.8,207.8 323.1,207.1 323.2,206.9 323.6,206.0 323.6,205.8 324.0,205.2 324.1,205.0 324.5,204.2 324.5,204.0 324.9,203.4 325.0,203.2 325.4,202.3 325.4,202.1 325.8,201.4 325.9,201.2 326.3,200.4 326.3,200.2 326.7,199.6 326.7,199.4 327.2,198.5 327.2,198.3 327.6,197.6 327.6,197.5 328.1,196.5 328.1,196.3 328.5,195.6 328.5,195.4 329.0,194.3 329.0,194.1 329.4,193.2 329.4,193.0 329.9,192.0 329.9,191.8 330.3,191.0 330.3,190.8 330.7,189.9 330.8,189.7 331.2,189.0 331.2,188.8 331.6,187.9 331.7,187.7 332.1,187.1 332.1,186.9 332.5,186.1 332.6,186.0 333.0,185.3 333.1,185.1 333.4,184.6 333.5,184.5 333.9,183.9 334.0,183.8 334.3,183.5 334.4,183.4 334.8,183.0 334.9,183.0 335.2,182.6 335.3,182.6 335.7,182.1 335.8,182.1 336.1,181.8 336.2,181.7 336.6,181.3 336.7,181.3 337.0,181.0 337.1,181.0 337.5,180.7 337.6,180.6 337.9,180.4 338.0,180.3 338.4,180.0 338.5,180.0 338.8,179.8 338.9,179.7 339.3,179.3 339.4,179.3 339.7,179.0 339.8,178.9 340.2,178.6 340.3,178.5 340.6,178.3 340.7,178.3 341.1,178.1 341.2,178.0 341.5,177.9 341.8,177.9 342.0,177.9 342.1,178.0 342.4,178.0 342.5,178.0 342.9,178.1 343.0,178.2 343.3,178.3 343.4,178.3 343.8,178.4 343.9,178.5 344.2,178.6 344.3,178.7 344.7,178.8 344.8,178.8 345.1,178.9 345.2,179.0 345.6,179.2 345.7,179.3 346.0,179.6 346.1,179.7 346.5,180.1 346.6,180.2 346.9,180.6 347.0,180.7 347.4,181.2 347.5,181.3 347.9,181.9 348.0,182.0 348.3,182.6 348.4,182.7 348.8,183.4 348.9,183.6 349.2,184.3 349.3,184.5 349.7,185.5 349.8,185.7 350.1,186.7 350.2,186.9 350.6,188.0 350.7,188.3 351.0,189.2 351.1,189.4 351.5,190.6 351.6,190.8 351.9,191.7 352.0,191.9 352.4,193.0 352.5,193.2 352.8,194.1 352.9,194.3 353.3,195.4 353.4,195.6 353.7,196.5 353.8,196.7 354.2,197.7 354.3,198.0 354.6,198.8 354.7,199.0 355.1,200.1 355.1,200.3 355.5,201.1 355.6,201.3 356.0,202.4 356.0,202.6 356.4,203.4 356.5,203.6 356.9,204.6 356.9,204.8 357.3,205.6 357.4,205.8 357.8,206.8 357.8,206.9 358.2,207.7 358.2,207.9 358.7,208.8 358.7,209.0 359.1,209.8 359.1,209.9 359.6,210.8 359.6,211.0 360.0,211.7 360.0,211.9 360.5,212.7 360.5,212.9 360.9,213.5 360.9,213.7 361.4,214.5 361.4,214.7 361.8,215.3 361.8,215.5 362.2,216.3 362.3,216.4 362.7,217.3 362.8,217.4 363.1,218.1 363.2,218.2 363.6,219.0 363.7,219.2 364.0,219.8 364.1,220.0 364.5,220.8 364.6,220.9 364.9,221.6 365.0,221.7 365.4,222.5 365.5,222.6 365.8,223.2 365.9,223.4 366.3,224.1 366.4,224.2 366.7,224.8 366.8,225.0 367.2,225.7 367.3,225.9 367.6,226.5 367.7,226.6 368.1,227.4 368.2,227.5 368.5,228.1 368.6,228.2 369.0,228.9 369.1,229.1 369.4,229.7 369.5,229.8 369.9,230.6 370.0,230.7 370.3,231.3 370.4,231.4 370.8,232.2 370.9,232.3 371.2,232.9 371.3,233.1 371.7,233.8 371.8,234.0 372.1,234.6 372.2,234.7 372.6,235.4 372.7,235.5 373.0,236.1 373.1,236.2 373.5,236.9 373.6,237.0 373.9,237.6 374.0,237.7 374.4,238.4 374.5,238.5 374.8,239.0 374.9,239.1 375.3,239.7 375.4,239.8 375.7,240.3 375.8,240.4 376.2,240.9 376.3,241.1 376.6,241.5 376.7,241.6 377.1,242.1 377.2,242.2 377.6,242.7 377.7,242.8 378.0,243.3 378.1,243.4 378.5,243.9 378.6,244.0 378.9,244.3 379.0,244.4 379.4,244.9 379.5,245.0 379.8,245.4 379.9,245.5 380.3,246.0 380.4,246.1 380.7,246.4 380.8,246.5 381.2,247.0 381.3,247.1 381.6,247.5 381.7,247.6 382.1,248.1 382.2,248.2 382.5,248.5 382.6,248.6 383.0,249.0 383.1,249.1 383.4,249.4 383.5,249.5 383.9,249.9 384.0,250.0 384.3,250.2 384.4,250.3 384.8,250.6 384.9,250.7 385.2,251.0 385.3,251.0 385.7,251.3 385.8,251.4 386.1,251.6 386.2,251.7 386.6,252.0 386.6,252.1 387.0,252.3 387.1,252.4 387.5,252.7 387.5,252.7 387.9,252.9 388.0,252.9 388.4,253.1 388.4,253.2 388.8,253.3 388.9,253.4 389.3,253.6 389.3,253.6 389.7,253.8 389.7,253.8 390.2,253.9 390.2,253.9 390.6,254.0 390.6,254.1 391.1,254.1 391.1,254.2 391.5,254.2" fill="none" stroke="#cf222e" stroke-width="1.80" stroke-linejoin="round" stroke-linecap="round"/>
<line x1="74.00" y1="254.20" x2="918.00" y2="254.20" stroke="#57606a" stroke-width="0.80" stroke-dasharray="1 5"/>
<rect x="344.34" y="249.00" width="10.40" height="10.40" fill="#cf222e"/>
<text x="349.54" y="270.20" fill="#cf222e" font-size="13.0" text-anchor="middle">μ</text>
<polyline points="99.1,363.0 100.2,363.0 101.4,363.0 102.7,363.0 103.9,363.0 105.1,363.0 106.3,363.0 107.6,363.0 108.8,363.0 110.0,363.0 111.2,363.0 112.5,363.0 113.7,363.0 114.9,363.0 116.1,363.0 117.3,363.0 118.6,363.0 119.8,363.0 121.0,363.0 122.2,363.0 123.5,363.0 124.7,363.0 125.9,363.0 127.1,363.0 128.4,363.0 129.6,363.0 130.8,363.0 132.0,363.0 133.3,363.0 134.5,363.0 135.7,363.0 136.9,363.0 138.1,363.0 139.3,363.0 140.5,363.0 141.7,363.0 143.0,363.0 144.2,363.0 145.4,363.0 146.6,363.0 147.9,363.0 149.1,363.0 150.3,363.0 151.5,363.0 152.8,363.0 154.0,363.0 155.2,363.0 156.4,363.0 157.7,363.0 157.9,363.0 158.9,363.0 160.1,363.0 161.3,363.0 161.6,363.0 162.6,363.0 163.6,363.0 163.8,363.0 163.9,363.0 165.0,363.0 166.1,363.0 166.2,363.0 166.9,363.0 167.5,363.0 168.5,363.0 168.7,363.0 169.7,363.0 169.9,363.0 171.0,363.0 171.1,363.0 172.0,363.0 172.4,363.0 173.5,363.0 173.6,363.0 174.6,363.0 175.0,363.0 175.9,363.0 175.9,363.0 177.1,363.0 177.2,363.0 178.3,363.0 178.4,363.0 179.5,363.0 179.9,363.0 180.8,363.0 180.8,363.0 182.0,363.0 182.1,363.0 182.8,363.0 183.3,363.0 184.4,363.0 184.5,363.0 185.7,363.0 185.7,363.0 186.9,363.0 187.0,363.0 187.8,363.0 188.2,363.0 189.3,363.0 189.4,363.0 190.5,363.0 190.7,363.0 191.8,363.0 191.9,363.0 193.0,363.0 193.1,363.0 194.2,363.0 194.3,363.0 195.4,363.0 195.5,363.0 196.7,363.0 196.8,363.0 197.9,363.0 198.5,363.0 199.1,363.0 199.2,363.0 200.3,363.0 200.4,363.0 201.6,363.0 201.6,363.0 202.8,363.0 203.4,363.0 204.0,363.0 204.1,363.0 205.2,363.0 205.3,363.0 206.5,363.0 206.7,363.0 207.7,363.0 207.8,363.0 208.9,363.0 209.0,363.0 209.6,363.0 210.2,363.0 211.0,363.0 211.4,363.0 212.5,363.0 212.6,363.0 213.7,363.0 214.0,363.0 214.9,363.0 215.0,363.0 216.2,363.0 216.3,363.0 217.4,363.0 217.5,363.0 218.6,363.0 219.2,363.0 219.8,363.0 219.9,363.0 221.1,363.0 221.2,363.0 222.3,363.0 222.4,363.0 223.5,363.0 223.6,363.0 224.7,363.0 224.8,363.0 226.0,363.0 226.0,363.0 227.2,363.0 227.3,363.0 228.4,363.0 228.5,363.0 229.6,363.0 229.7,363.0 230.9,363.0 230.9,363.0 232.1,363.0 232.2,363.0 233.3,363.0 233.4,363.0 234.5,363.0 235.1,363.0 235.8,363.0 235.8,363.0 237.0,363.0 237.1,363.0 238.2,363.0 238.3,363.0 239.4,363.0 239.5,363.0 240.7,363.0 240.7,363.0 241.9,363.0 242.0,363.0 243.1,363.0 243.2,363.0 244.3,363.0 244.4,363.0 245.3,363.0 245.6,363.0 246.8,363.0 246.9,363.0 248.0,363.0 248.1,363.0 249.2,363.0 249.3,363.0 250.4,363.0 250.8,363.0 251.6,363.0 251.7,363.0 252.8,363.0 252.9,363.0 254.0,363.0 254.1,363.0 255.3,363.0 255.3,363.0 256.5,363.0 256.6,363.0 257.7,363.0 257.8,363.0 258.9,363.0 259.0,363.0 260.2,363.0 260.8,363.0 261.4,363.0 261.5,363.0 262.6,363.0 262.7,363.0 263.8,363.0 263.9,363.0 265.1,363.0 265.1,363.0 266.3,363.0 266.5,363.0 267.5,363.0 267.6,363.0 268.7,363.0 268.8,363.0 270.0,363.0 270.0,363.0 271.2,363.0 271.3,363.0 272.4,363.0 272.5,363.0 273.6,363.0 273.7,363.0 274.8,363.0 274.9,363.0 276.1,363.0 276.4,363.0 277.3,363.0 277.4,363.0 278.5,363.0 278.6,363.0 279.7,363.0 279.8,363.0 281.0,363.0 281.1,363.0 282.2,363.0 282.4,363.0 283.4,363.0 283.5,363.0 284.6,363.0 284.7,363.0 285.9,363.0 285.9,363.0 287.1,363.0 287.2,363.0 288.2,363.0 288.7,363.0 289.5,363.0 289.6,363.0 290.7,363.0 290.8,363.0 291.6,363.0 292.0,363.0 293.1,363.0 293.2,363.0 294.4,363.0 294.4,363.0 295.6,363.0 295.7,363.0 296.8,363.0 296.9,363.0 297.7,363.0 298.1,363.0 299.2,363.0 299.3,363.0 300.5,363.0 300.6,363.0 301.7,363.0 301.8,363.0 302.9,363.0 303.0,363.0 304.1,363.0 304.2,363.0 305.4,363.0 305.5,363.0 306.6,363.0 307.1,363.0 307.8,363.0 307.9,363.0 309.0,363.0 309.1,363.0 310.3,363.0 310.3,363.0 311.5,363.0 311.6,363.0 312.7,363.0 312.8,363.0 313.9,363.0 314.1,363.0 315.2,363.0 315.2,363.0 316.4,363.0 316.5,363.0 317.6,363.0 317.7,363.0 318.8,363.0 318.9,363.0 320.1,363.0 320.1,363.0 321.3,363.0 321.4,363.0 322.5,363.0 322.6,363.0 323.7,363.0 323.8,363.0 325.0,363.0 325.0,363.0 326.1,363.0 326.2,363.0 327.3,363.0 327.4,363.0 328.5,363.0 328.6,363.0 329.8,363.0 329.9,363.0 331.0,363.0 331.1,363.0 332.2,363.0 332.3,363.0 333.4,363.0 333.5,363.0 334.7,363.0 334.7,363.0 335.9,363.0 336.0,363.0 337.1,363.0 337.2,363.0 338.3,363.0 338.4,363.0 339.2,363.0 339.6,363.0 340.8,363.0 340.9,363.0 342.0,363.0 342.1,363.0 343.2,363.0 343.3,363.0 344.5,363.0 344.5,363.0 345.7,363.0 346.3,363.0 346.9,363.0 347.0,363.0 347.9,363.0 348.2,363.0 349.4,363.0 349.4,363.0 350.6,363.0 350.7,363.0 351.8,363.0 351.9,363.0 353.0,363.0 353.1,363.0 354.3,363.0 354.3,363.0 355.5,363.0 355.6,363.0 356.7,363.0 356.8,363.0 357.9,363.0 358.0,363.0 359.1,363.0 359.2,363.0 360.1,363.0 360.5,363.0 361.6,363.0 361.7,363.0 362.8,363.0 362.9,363.0 364.0,363.0 364.0,363.0 365.2,363.0 365.3,363.0 366.4,363.0 366.5,363.0 367.6,363.0 367.7,363.0 368.9,363.0 368.9,363.0 370.1,363.0 370.2,363.0 371.3,363.0 371.4,363.0 372.5,363.0 372.9,363.0 373.8,363.0 373.8,363.0 375.0,363.0 375.1,363.0 376.2,363.0 376.4,363.0 377.4,363.0 377.5,363.0 378.7,363.0 378.7,363.0 379.4,363.0 380.0,363.0 381.1,363.0 381.2,363.0 382.3,363.0 382.4,363.0 383.5,363.0 383.6,363.0 384.8,363.0 384.9,363.0 386.0,363.0 386.1,363.0 387.2,363.0 387.3,363.0 388.4,363.0 388.5,363.0 389.7,363.0 389.7,363.0 390.9,363.0 391.0,363.0 392.1,363.0 392.2,363.0 393.3,363.0 393.4,363.0 394.6,363.0 394.6,363.0 395.8,363.0 395.9,363.0 397.0,363.0 397.1,363.0 398.2,363.0 398.3,363.0 399.5,363.0 399.5,363.0 400.7,363.0 400.8,363.0 401.8,363.0 401.9,363.0 403.1,363.0 403.1,363.0 404.3,363.0 404.8,363.0 405.5,363.0 405.6,363.0 406.7,363.0 406.8,363.0 407.5,363.0 408.0,363.0 409.2,363.0 409.3,363.0 410.4,363.0 410.5,363.0 411.2,363.0 411.7,363.0 412.8,363.0 412.9,363.0 414.1,363.0 414.1,363.0 415.3,363.0 415.4,363.0 416.5,363.0 416.6,363.0 417.7,363.0 417.8,363.0 419.0,363.0 419.0,363.0 420.2,363.0 420.3,363.0 421.4,363.0 421.5,363.0 422.6,363.0 422.7,363.0 423.4,363.0 423.9,363.0 425.1,363.0 425.2,363.0 426.3,363.0 426.4,363.0 427.5,363.0 427.6,363.0 428.8,363.0 428.8,363.0 430.0,363.0 430.1,363.0 431.2,363.0 431.3,363.0 432.4,363.0 432.5,363.0 433.7,363.0 433.7,363.0 434.9,363.0 435.4,363.0 436.1,363.0 436.2,363.0 437.3,363.0 437.4,363.0 438.5,363.0 438.6,363.0 439.7,363.0 439.8,363.0 440.9,363.0 441.0,363.0 442.1,363.0 442.2,363.0 443.4,363.0 443.4,363.0 444.6,363.0 444.7,363.0 445.8,363.0 445.9,363.0 447.0,363.0 447.1,363.0 448.3,363.0 448.3,363.0 449.5,363.0 449.6,363.0 450.7,363.0 450.8,363.0 451.9,363.0 452.0,363.0 453.2,363.0 453.2,363.0 454.4,363.0 454.5,363.0 455.6,363.0 455.7,363.0 456.8,363.0 456.9,363.0 458.1,363.0 458.1,363.0 459.3,363.0 459.4,363.0 460.5,363.0 460.6,363.0 461.7,363.0 461.8,363.0 462.9,363.0 463.0,363.0 464.2,363.0 464.3,363.0 465.4,363.0 465.5,363.0 466.6,363.0 466.7,363.0 467.8,363.0 467.9,363.0 469.1,363.0 469.2,363.0 470.3,363.0 470.4,363.0 471.5,363.0 471.6,363.0 472.3,363.0 472.8,363.0 474.0,363.0 474.0,363.0 475.2,363.0 475.3,363.0 476.4,363.0 476.5,363.0 477.6,363.0 477.6,363.0 478.8,363.0 478.9,363.0 480.0,363.0 480.1,363.0 481.2,363.0 481.3,363.0 482.5,363.0 482.5,363.0 483.7,363.0 483.8,363.0 484.9,363.0 485.0,363.0 486.1,363.0 486.2,363.0 487.0,363.0 487.4,363.0 488.6,363.0 488.7,363.0 489.8,363.0 489.9,363.0 491.0,363.0 491.1,363.0 492.2,363.0 492.3,363.0 493.5,363.0 493.6,363.0 494.7,363.0 494.8,363.0 495.9,363.0 496.3,363.0 497.1,363.0 497.2,363.0 498.4,363.0 498.4,363.0 499.6,363.0 499.7,363.0 500.8,363.0 500.9,363.0 502.0,363.0 502.1,363.0 503.3,363.0 503.3,363.0 504.5,363.1 504.6,363.1 505.7,363.1 505.8,363.1 506.9,363.1 507.0,363.1 508.2,363.1 508.2,363.1 509.4,363.1 509.5,363.1 510.6,363.1 510.7,363.1 511.8,363.1 511.9,363.1 513.1,363.1 513.1,363.1 514.3,363.2 514.4,363.2 515.4,363.2 515.6,363.2 516.6,363.2 516.7,363.2 517.9,363.1 518.0,363.1 519.1,363.1 519.2,363.1 520.3,363.1 520.4,363.1 521.5,363.1 521.6,363.1 522.8,363.0 522.8,363.0 524.0,363.0 524.1,363.0 525.2,362.9 525.3,362.9 526.4,362.9 526.5,362.9 527.7,362.8 527.7,362.8 528.9,362.8 529.0,362.8 530.1,362.7 530.2,362.7 531.3,362.7 531.4,362.7 532.6,362.7 532.6,362.7 533.8,362.7 533.9,362.7 535.0,362.7 535.1,362.7 536.2,362.7 536.3,362.7 537.5,362.7 537.5,362.7 538.7,362.7 538.8,362.7 539.9,362.7 540.0,362.7 541.1,362.7 541.4,362.7 542.4,362.7 542.4,362.7 543.6,362.7 543.7,362.7 544.8,362.7 544.9,362.7 546.0,362.7 546.1,362.7 547.2,362.7 547.3,362.7 548.5,362.7 548.6,362.7 549.7,362.7 549.8,362.7 550.9,362.8 551.0,362.8 552.1,362.8 552.2,362.8 553.3,362.8 553.4,362.8 554.5,362.8 554.6,362.8 555.7,362.8 555.8,362.8 557.0,362.8 557.0,362.8 558.2,362.9 558.3,362.9 559.4,362.9 559.5,362.9 560.6,363.0 560.7,363.0 561.9,363.1 561.9,363.1 563.1,363.2 563.2,363.2 564.3,363.4 564.4,363.4 565.5,363.5 565.6,363.5 566.8,363.7 566.8,363.7 568.0,363.8 568.1,363.8 569.2,363.9 569.3,364.0 570.4,364.1 570.5,364.1 571.6,364.2 571.7,364.2 572.9,364.3 573.0,364.3 574.1,364.4 574.2,364.4 575.3,364.4 575.4,364.4 576.5,364.5 576.6,364.5 577.8,364.5 577.9,364.5 578.5,364.5 579.1,364.5 580.2,364.5 580.3,364.5 581.4,364.4 581.5,364.4 582.7,364.4 582.7,364.4 583.9,364.3 584.0,364.2 585.1,364.1 585.2,364.1 586.3,364.0 586.4,363.9 587.6,363.8 587.6,363.8 588.8,363.6 588.9,363.6 590.0,363.4 590.1,363.4 591.2,363.2 591.2,363.2 592.4,363.0 592.5,363.0 593.6,362.8 593.7,362.8 594.8,362.7 594.9,362.6 596.0,362.5 596.1,362.5 597.3,362.3 597.4,362.3 598.5,362.1 598.6,362.1 599.7,361.9 599.8,361.9 600.9,361.7 601.0,361.7 602.2,361.5 602.3,361.5 603.4,361.3 603.5,361.2 604.6,361.0 604.7,361.0 605.8,360.7 605.9,360.7 607.1,360.5 607.1,360.4 608.3,360.2 608.4,360.2 609.5,360.0 609.6,360.0 610.7,359.8 610.8,359.7 612.0,359.6 612.0,359.5 613.2,359.4 613.3,359.4 614.4,359.3 614.5,359.3 615.6,359.2 615.7,359.2 616.9,359.1 617.4,359.1 618.1,359.1 618.2,359.1 619.3,359.2 619.4,359.2 620.5,359.3 620.6,359.3 621.8,359.5 621.8,359.5 623.0,359.8 623.1,359.8 624.2,360.1 624.3,360.1 625.4,360.5 625.5,360.6 626.7,361.0 626.7,361.0 627.9,361.6 628.0,361.6 629.0,362.1 629.1,362.1 630.2,362.7 630.3,362.8 631.5,363.4 631.5,363.4 632.7,364.0 632.8,364.1 633.9,364.7 634.0,364.7 635.1,365.3 635.2,365.3 636.4,365.9 636.4,365.9 637.6,366.5 637.7,366.5 638.8,367.0 638.9,367.1 640.0,367.6 640.1,367.6 641.3,368.1 641.3,368.1 642.5,368.6 642.6,368.6 643.7,369.0 643.8,369.1 644.9,369.5 645.0,369.5 646.2,369.9 646.2,369.9 647.4,370.2 647.5,370.3 648.6,370.5 648.7,370.6 649.8,370.8 649.9,370.8 651.1,371.0 651.1,371.0 652.3,371.1 652.4,371.1 653.5,371.1 653.8,371.1 654.7,371.1 654.8,371.1 655.9,371.0 656.0,371.0 657.2,370.8 657.3,370.8 658.4,370.6 658.5,370.6 659.6,370.2 659.7,370.2 660.8,369.8 660.9,369.8 662.1,369.2 662.1,369.2 663.3,368.6 663.4,368.5 664.5,367.8 664.6,367.7 665.7,366.9 665.8,366.8 666.9,365.9 667.0,365.9 668.1,364.8 668.2,364.7 669.3,363.6 669.4,363.5 670.6,362.3 670.6,362.3 671.8,361.0 671.9,360.9 673.0,359.7 673.1,359.6 674.2,358.3 674.3,358.2 675.5,357.0 675.5,356.9 676.7,355.7 676.8,355.6 677.9,354.4 678.0,354.4 679.1,353.3 679.2,353.2 680.3,352.1 680.4,352.1 681.6,351.1 681.7,351.0 682.8,350.1 682.9,350.1 684.0,349.2 684.1,349.2 685.2,348.5 685.3,348.4 686.5,347.8 686.5,347.8 687.7,347.3 687.8,347.3 688.9,346.9 689.0,346.9 690.1,346.7 690.2,346.7 691.4,346.6 691.6,346.6 692.6,346.6 692.7,346.6 693.8,346.8 693.9,346.8 695.0,347.1 695.1,347.1 696.3,347.6 696.3,347.6 697.5,348.2 697.6,348.2 698.7,348.9 698.8,349.0 699.9,349.8 700.0,349.9 701.2,350.9 701.2,350.9 702.4,352.0 702.5,352.1 703.6,353.4 703.7,353.5 704.7,354.8 704.8,354.9 706.0,356.4 706.1,356.5 707.2,358.1 707.3,358.3 708.4,360.0 708.5,360.2 709.6,362.1 709.7,362.2 710.9,364.2 710.9,364.3 712.1,366.4 712.2,366.5 713.3,368.6 713.4,368.7 714.5,370.9 714.6,371.0 715.8,373.1 715.8,373.3 717.0,375.4 717.1,375.5 718.2,377.6 718.3,377.7 719.4,379.7 719.5,379.8 720.7,381.7 720.7,381.9 721.9,383.6 722.0,383.8 723.1,385.5 723.2,385.6 724.3,387.1 724.4,387.2 725.6,388.6 725.6,388.7 726.8,389.9 726.9,390.0 728.0,391.1 728.1,391.1 729.2,392.0 729.3,392.0 730.5,392.7 730.5,392.7 731.7,393.2 731.8,393.2 732.9,393.4 733.0,393.4 733.6,393.5 734.2,393.4 735.3,393.2 735.4,393.2 736.6,392.8 736.7,392.8 737.8,392.1 737.9,392.1 739.0,391.2 739.1,391.2 740.2,390.1 740.3,390.1 741.5,388.8 741.6,388.7 742.6,387.4 742.7,387.2 743.8,385.6 743.9,385.5 745.1,383.6 745.1,383.5 746.3,381.4 746.4,381.3 747.5,379.0 747.6,378.9 748.7,376.5 748.8,376.3 750.0,373.7 750.0,373.5 751.2,370.7 751.3,370.5 752.4,367.7 752.5,367.4 753.6,364.4 753.7,364.2 754.9,361.1 754.9,360.9 756.1,357.7 756.2,357.5 757.3,354.2 757.4,354.0 758.5,350.7 758.6,350.4 759.8,347.1 759.8,346.9 761.0,343.6 761.1,343.3 762.2,340.0 762.3,339.8 763.4,336.6 763.5,336.3 764.6,333.1 764.7,332.9 765.9,329.8 766.0,329.5 767.1,326.5 767.2,326.3 768.3,323.4 768.4,323.2 769.5,320.4 769.6,320.2 770.8,317.5 770.8,317.3 772.0,314.8 772.1,314.6 773.2,312.3 773.3,312.1 774.4,310.0 774.5,309.8 775.7,307.8 775.7,307.7 776.9,305.8 777.0,305.7 778.1,304.1 778.2,304.0 779.3,302.5 779.4,302.4 780.5,301.2 780.6,301.1 781.7,300.0 781.8,299.9 782.9,299.0 783.0,299.0 784.2,298.2 784.2,298.2 785.4,297.7 785.5,297.6 786.6,297.3 786.7,297.3 787.8,297.1 788.3,297.1 789.0,297.1 789.1,297.1 790.3,297.4 790.4,297.4 791.5,297.8 791.6,297.8 792.7,298.3 792.8,298.4 793.9,299.1 794.0,299.1 795.2,300.0 795.2,300.1 796.4,301.1 796.5,301.1 797.6,302.3 797.7,302.3 798.8,303.6 798.9,303.7 800.1,305.0 800.1,305.1 801.3,306.6 801.4,306.7 802.5,308.2 802.6,308.4 803.7,310.0 803.8,310.1 805.0,311.8 805.0,311.9 806.2,313.6 806.3,313.7 807.4,315.5 807.5,315.6 808.6,317.4 808.7,317.6 809.9,319.4 809.9,319.5 811.1,321.4 811.2,321.5 812.3,323.3 812.4,323.5 813.5,325.3 813.6,325.4 814.8,327.2 814.8,327.3 816.0,329.1 816.1,329.3 817.2,331.0 817.3,331.1 818.3,332.7 818.4,332.9 819.6,334.6 819.6,334.7 820.8,336.3 820.9,336.4 822.0,338.0 822.1,338.1 823.2,339.7 823.3,339.8 824.5,341.3 824.5,341.4 825.7,342.9 825.8,343.0 826.9,344.3 827.0,344.4 828.1,345.8 828.2,345.9 829.4,347.1 829.4,347.2 830.6,348.4 830.7,348.5 831.8,349.6 831.9,349.7 833.0,350.8 833.1,350.8 834.3,351.9 834.3,351.9 835.5,352.9 835.6,352.9 836.7,353.8 836.8,353.9 837.9,354.7 838.0,354.8 839.2,355.5 839.2,355.6 840.4,356.3 840.5,356.3 841.6,357.0 841.7,357.0 842.8,357.6 842.9,357.7 844.0,358.2 844.1,358.3 845.3,358.8 845.4,358.8 846.5,359.2 846.6,359.3 847.7,359.7 847.8,359.7 848.9,360.1 849.0,360.1 850.2,360.5 850.3,360.5 851.4,360.8 851.5,360.8 852.6,361.1 852.7,361.1 853.8,361.3 853.9,361.4 855.1,361.6 855.1,361.6 856.2,361.8 856.3,361.8 857.4,361.9 857.5,362.0 858.7,362.1 858.7,362.1 859.9,362.2 860.0,362.3 861.1,362.4 861.2,362.4 862.3,362.5 862.4,362.5 863.6,362.6 863.6,362.6 864.8,362.6 864.9,362.7 866.0,362.7 866.1,362.7 867.2,362.8 867.3,362.8 868.4,362.8 868.5,362.8 869.7,362.9 869.8,362.9 870.9,362.9 871.0,362.9 872.1,362.9 872.2,362.9 873.3,362.9 873.4,362.9 874.6,363.0 874.7,363.0 875.8,363.0 875.9,363.0 877.0,363.0 877.1,363.0 878.2,363.0 878.3,363.0 879.5,363.0 879.5,363.0 880.7,363.0 880.8,363.0 881.9,363.0 882.0,363.0 883.1,363.0 883.2,363.0 884.4,363.0 884.4,363.0 885.6,363.0 885.7,363.0 886.8,363.0 886.9,363.0 888.0,363.0 888.1,363.0 889.3,363.0 889.3,363.0 890.5,363.0 890.6,363.0 891.7,363.0 891.8,363.0 892.9,363.0" fill="none" stroke="#1a7f37" stroke-width="1.80" stroke-linejoin="round" stroke-linecap="round"/>
<line x1="74.00" y1="363.00" x2="918.00" y2="363.00" stroke="#57606a" stroke-width="0.80" stroke-dasharray="1 5"/>
<rect x="798.69" y="357.80" width="10.40" height="10.40" fill="#1a7f37"/>
<text x="803.89" y="379.00" fill="#1a7f37" font-size="13.0" text-anchor="middle">μ</text>
<text x="583.74" y="133.16" fill="#1f2328" font-size="12.5" text-anchor="middle" font-style="italic">the centre of mass sits at 79% of the support at K = 2,</text>
<text x="583.74" y="150.16" fill="#1f2328" font-size="12.5" text-anchor="middle" font-style="italic">rising to 89% at K = 12, so re-centring by ε_N μ(s) shifts by</text>
<text x="583.74" y="167.16" fill="#1f2328" font-size="12.5" text-anchor="middle" font-style="italic">the same order as the light cone ε_N(2K−1)</text>
</g>
<text x="496.00" y="26.00" fill="#1f2328" font-size="15" font-weight="600" text-anchor="middle">Asymmetry of the scaling function: support [0, 2K−1] and centre of mass μ(s)</text>
<text x="496.00" y="458.00" fill="#1f2328" font-size="13.5" text-anchor="middle">x</text>
<text transform="translate(16.00,227.00) rotate(-90)" fill="#1f2328" font-size="13.5" text-anchor="middle">s(x) for order K  (offset per order)</text>
<rect x="715.80" y="52.00" width="190.20" height="67.00" fill="#ffffff" opacity="0.88" stroke="#d8dee4" stroke-width="1" rx="4"/>
<line x1="722.80" y1="65.00" x2="739.80" y2="65.00" stroke="#0969da" stroke-width="2.4"/>
<text x="745.80" y="69.00" fill="#1f2328" font-size="12.5">db2,  μ = 2.37 of 3</text>
<line x1="722.80" y1="84.00" x2="739.80" y2="84.00" stroke="#cf222e" stroke-width="2.4"/>
<text x="745.80" y="88.00" fill="#1f2328" font-size="12.5">db4,  μ = 5.99 of 7</text>
<line x1="722.80" y1="103.00" x2="739.80" y2="103.00" stroke="#1a7f37" stroke-width="2.4"/>
<text x="745.80" y="107.00" fill="#1f2328" font-size="12.5">db10,  μ = 16.87 of 19</text>
</svg>
